<svg width="675" height="569" viewBox="0 0 675 569" fill="none" xmlns="http://www.w3.org/2000/svg">
<path d="M423.493 297.117C476.351 242.419 476.351 153.736 423.493 99.0387C370.636 44.341 284.936 44.341 232.079 99.0387C179.221 153.736 179.221 242.419 232.079 297.117C284.936 351.814 370.636 351.814 423.493 297.117Z" fill="#EE9730"/>
<path d="M674.556 431.247L643.452 431.177L597.465 431.071L503.784 430.853C503.784 430.853 503.804 430.844 503.836 430.827L597.927 376.795L674.556 431.247Z" fill="#EDB188"/>
<path d="M674.558 431.247L643.453 431.177C634.262 413.021 607.372 402.76 599.881 397.704C590.535 391.385 597.928 376.795 597.928 376.795L674.558 431.247Z" fill="#EFBE97"/>
<path d="M597.465 431.074L503.784 430.855C503.784 430.855 503.804 430.846 503.836 430.83C505.056 430.26 528.294 419.569 546.156 423.521C561.967 427.017 589.163 424.668 597.465 431.074Z" fill="#E8A577"/>
<path d="M349.574 431.247L285.904 431.105L191.767 430.89L-0.000244141 430.442C-0.000244141 430.442 0.0391 430.424 0.105275 430.388L192.71 319.786L349.574 431.247Z" fill="#EDB188"/>
<path d="M349.574 431.247L285.904 431.105C267.091 393.937 212.043 372.933 196.71 362.583C177.577 349.65 192.711 319.784 192.711 319.784L349.574 431.247Z" fill="#EFBE97"/>
<path d="M191.767 430.89L-0.000244141 430.442C-0.000244141 430.442 0.0391 430.423 0.105275 430.388C2.60384 429.222 50.1696 407.339 86.7342 415.428C119.103 422.583 174.774 417.777 191.767 430.89Z" fill="#E8A577"/>
<path d="M590.153 431.247L545.855 431.147L480.359 430.997L346.935 430.685C346.935 430.685 346.964 430.672 347.008 430.648L481.013 353.696L590.153 431.247Z" fill="#EFBE97"/>
<path d="M590.151 431.247L545.852 431.147C532.762 405.288 494.463 390.674 483.796 383.473C470.484 374.475 481.013 353.696 481.013 353.696L590.151 431.247Z" fill="#F5CDA9"/>
<path d="M480.355 431L346.932 430.687C346.932 430.687 346.96 430.674 347.005 430.65C348.743 429.839 381.838 414.613 407.278 420.241C429.799 425.221 468.531 421.875 480.355 431Z" fill="#EDB188"/>
<path d="M574.457 317.468C565.241 317.714 558.012 325.795 558.012 335.336V431.523H591.795V334.942C591.795 325.134 583.99 317.215 574.457 317.468Z" fill="#D3573B"/>
<path d="M574.903 317.463C569.607 317.463 565.313 325.288 565.313 334.942V431.523H584.493V334.942C584.493 325.288 580.199 317.463 574.903 317.463Z" fill="#F46640"/>
<path d="M574.902 317.463C572.917 317.463 571.307 325.288 571.307 334.942V431.523H578.497V334.942C578.497 325.288 576.887 317.463 574.902 317.463Z" fill="#F46640"/>
<path d="M568.001 330.504L565.796 332.506L565.349 328.212H565.345L564.898 332.51L562.69 330.504L564.755 333.874H564.757L565.344 334.831V334.823L565.347 334.831L565.939 333.874V333.867L568.001 330.504Z" fill="#F9A42D"/>
<path d="M587.118 330.504L584.913 332.506L584.466 328.212H584.462L584.015 332.51L581.804 330.504L583.872 333.874H583.874L584.459 334.831V334.823L584.464 334.831L585.056 333.874L585.054 333.867L587.118 330.504Z" fill="#F9A42D"/>
<path d="M577.559 337.122L575.354 339.124L574.906 334.831H574.903L574.456 339.128L572.247 337.122L574.313 340.49L574.314 340.492L574.901 341.447V341.442L574.905 341.447L575.497 340.49L575.495 340.485L577.559 337.122Z" fill="#F9A42D"/>
<path d="M577.559 353.601L575.354 355.604L574.906 351.31H574.903L574.456 355.608L572.247 353.601L574.313 356.972L574.314 356.973L574.901 357.928V357.921L574.905 357.928L575.497 356.972L575.495 356.964L577.559 353.601Z" fill="#F9A42D"/>
<path d="M577.559 370.083L575.354 372.085L574.906 367.792H574.903L574.456 372.089L572.247 370.083L574.313 373.451L574.314 373.453L574.901 374.41V374.403L574.905 374.41L575.497 373.451L575.495 373.446L577.559 370.083Z" fill="#F9A42D"/>
<path d="M568.001 345.798L565.796 347.801L565.349 343.507H565.345L564.898 347.804L562.69 345.798L564.755 349.168H564.757L565.344 350.125V350.118L565.347 350.125L565.939 349.168V349.161L568.001 345.798Z" fill="#F9A42D"/>
<path d="M587.118 345.798L584.913 347.801L584.466 343.507H584.462L584.015 347.804L581.804 345.798L583.872 349.168H583.874L584.459 350.125V350.118L584.464 350.125L585.056 349.168L585.054 349.161L587.118 345.798Z" fill="#F9A42D"/>
<path d="M568.001 361.093L565.796 363.096L565.349 358.802H565.345L564.898 363.1L562.69 361.093L564.755 364.462L564.757 364.464L565.344 365.421V365.413L565.347 365.421L565.939 364.462V364.456L568.001 361.093Z" fill="#F9A42D"/>
<path d="M587.118 361.093L584.913 363.096L584.466 358.802H584.462L584.015 363.1L581.804 361.093L583.872 364.462L583.874 364.464L584.459 365.421V365.413L584.464 365.421L585.056 364.462L585.054 364.456L587.118 361.093Z" fill="#F9A42D"/>
<path d="M543.915 343.727V337.555C543.915 333.602 541.055 330.059 537.24 329.852C533.171 329.632 529.807 332.98 529.807 337.14V348.971V351.486C529.807 358.16 535.035 363.57 541.485 363.57H543.915H559.454V348.971H548.984C546.185 348.971 543.915 346.624 543.915 343.727Z" fill="#D3573B"/>
<path d="M541.485 358.484C537.748 358.484 534.722 355.351 534.722 351.487V337.141C534.722 335.922 535.683 334.928 536.863 334.928C538.079 334.991 539.002 336.192 539.002 337.554V348.686C539.002 351.651 541.325 354.056 544.191 354.056H558.012V358.483L541.485 358.484Z" fill="#F46640"/>
<path d="M544.228 356.335L542.022 358.338L541.575 354.044H541.57L541.123 358.341L538.914 356.335L540.982 359.704V359.705L541.568 360.662V360.655L541.574 360.662L542.164 359.704V359.698L544.228 356.335Z" fill="#F9A42D"/>
<path d="M537.379 345.799L535.174 347.802L534.727 343.508H534.723L534.276 347.805L532.067 345.799L534.133 349.169H534.135L534.721 350.126V350.119L534.725 350.126L535.317 349.169L535.315 349.162L537.379 345.799Z" fill="#F9A42D"/>
<path d="M541.571 336.418L539.368 338.421L538.92 334.127H538.915L538.468 338.424L536.259 336.418L538.327 339.788L538.913 340.745V340.738L538.919 340.745L539.509 339.788V339.781L541.571 336.418Z" fill="#F9A42D"/>
<path d="M554.499 356.335L552.294 358.338L551.847 354.044H551.843L551.395 358.341L549.188 356.335L551.253 359.704L551.255 359.705L551.84 360.662V360.655L551.845 360.662L552.437 359.704L552.435 359.698L554.499 356.335Z" fill="#F9A42D"/>
<path d="M607.334 374.038V367.865C607.334 363.912 610.193 360.37 614.008 360.164C618.077 359.944 621.441 363.292 621.441 367.452V379.283V381.798C621.441 388.472 616.214 393.882 609.764 393.882H607.334H591.795V379.283H602.265C605.064 379.281 607.334 376.934 607.334 374.038Z" fill="#D3573B"/>
<path d="M609.764 388.794C613.499 388.794 616.527 385.661 616.527 381.796V367.451C616.527 366.231 615.566 365.237 614.386 365.237C613.17 365.3 612.247 366.501 612.247 367.864V378.996C612.247 381.961 609.923 384.365 607.058 384.365H591.795V388.794H609.764Z" fill="#F46640"/>
<path d="M607.022 386.645L609.225 388.647L609.672 384.354H609.678L610.125 388.651L612.334 386.645L610.266 390.015L609.68 390.972V390.964L609.674 390.972L609.084 390.015V390.008L607.022 386.645Z" fill="#F9A42D"/>
<path d="M613.872 376.109L616.077 378.111L616.524 373.817H616.528L616.975 378.115L619.186 376.109L617.118 379.479H617.116L616.531 380.436V380.428L616.526 380.436L615.934 379.479L615.936 379.472L613.872 376.109Z" fill="#F9A42D"/>
<path d="M609.677 366.728L611.882 368.731L612.329 364.437H612.333L612.78 368.735L614.988 366.728L612.921 370.099L612.334 371.055V371.048L612.331 371.055L611.739 370.099V370.093L609.677 366.728Z" fill="#F9A42D"/>
<path d="M596.752 386.645L598.957 388.647L599.404 384.354H599.409L599.857 388.651L602.065 386.645L599.998 390.015L599.411 390.972V390.964L599.406 390.972L598.816 390.015V390.008L596.752 386.645Z" fill="#F9A42D"/>
<path d="M568.001 378.522L565.796 380.525L565.349 376.231H565.345L564.898 380.528L562.69 378.522L564.755 381.893H564.757L565.344 382.849V382.842L565.347 382.849L565.939 381.893V381.885L568.001 378.522Z" fill="#F9A42D"/>
<path d="M587.118 378.522L584.913 380.525L584.466 376.231H584.462L584.015 380.528L581.804 378.522L583.872 381.893H583.874L584.459 382.849V382.842L584.464 382.849L585.056 381.893L585.054 381.885L587.118 378.522Z" fill="#F9A42D"/>
<path d="M577.559 385.14L575.354 387.143L574.906 382.849H574.903L574.456 387.147L572.247 385.14L574.313 388.509L574.314 388.511L574.901 389.468V389.46L574.905 389.468L575.497 388.509L575.495 388.503L577.559 385.14Z" fill="#F9A42D"/>
<path d="M577.559 401.62L575.354 403.624L574.906 399.329H574.903L574.456 403.626L572.247 401.62L574.313 404.99L574.314 404.992L574.901 405.947V405.94L574.905 405.947L575.497 404.99L575.495 404.985L577.559 401.62Z" fill="#F9A42D"/>
<path d="M577.559 418.101L575.354 420.104L574.906 415.81H574.903L574.456 420.108L572.247 418.101L574.313 421.47L574.314 421.472L574.901 422.428V422.421L574.905 422.428L575.497 421.47L575.495 421.464L577.559 418.101Z" fill="#F9A42D"/>
<path d="M568.001 393.817L565.796 395.82L565.349 391.526H565.345L564.898 395.823L562.69 393.817L564.755 397.187H564.757L565.344 398.144V398.137L565.347 398.144L565.939 397.187V397.18L568.001 393.817Z" fill="#F9A42D"/>
<path d="M587.118 393.817L584.913 395.82L584.466 391.526H584.462L584.015 395.823L581.804 393.817L583.872 397.187H583.874L584.459 398.144V398.137L584.464 398.144L585.056 397.187L585.054 397.18L587.118 393.817Z" fill="#F9A42D"/>
<path d="M568.001 409.112L565.796 411.115L565.349 406.821H565.345L564.898 411.118L562.69 409.112L564.755 412.482H564.757L565.344 413.439V413.432L565.347 413.439L565.939 412.482V412.475L568.001 409.112Z" fill="#F9A42D"/>
<path d="M587.118 409.112L584.913 411.115L584.466 406.821H584.462L584.015 411.118L581.804 409.112L583.872 412.482H583.874L584.459 413.439V413.432L584.464 413.439L585.056 412.482L585.054 412.475L587.118 409.112Z" fill="#F9A42D"/>
<path d="M576.4 311.526C576.4 311.526 576.731 306.01 574.903 302.385C573.075 306.01 573.406 311.526 573.406 311.526H576.4Z" fill="#3F1715"/>
<path d="M576.936 309.751C576.487 310.513 576.013 310.904 575.537 310.904H574.902H574.267C573.79 310.904 573.318 310.513 572.869 309.751L570.581 305.86L571.996 312.508C572.767 316.134 573.813 318.172 574.904 318.172C575.995 318.172 577.042 316.134 577.812 312.508L579.225 305.86L576.936 309.751Z" fill="#21120D"/>
<path d="M578.021 311.002C577.335 311.652 576.609 311.983 575.877 311.983H574.902H573.928C573.196 311.983 572.472 311.652 571.783 311.002L568.276 307.691L570.444 313.351C571.626 316.438 573.23 318.172 574.901 318.172C576.573 318.172 578.175 316.438 579.358 313.351L581.525 307.691L578.021 311.002Z" fill="#3F1715"/>
<path d="M579.473 312.206C578.466 312.747 577.402 313.023 576.33 313.023H574.903H573.476C572.404 313.023 571.34 312.747 570.333 312.206L565.195 309.451L568.37 314.159C570.103 316.728 572.451 318.172 574.901 318.172C577.351 318.172 579.702 316.728 581.433 314.159L584.609 309.451L579.473 312.206Z" fill="#21120D"/>
<path d="M537.211 327.086C537.211 327.086 537.42 323.579 536.26 321.272C535.097 323.577 535.306 327.086 535.306 327.086H537.211Z" fill="#3F1715"/>
<path d="M537.554 325.957C537.268 326.442 536.967 326.69 536.665 326.69H536.261H535.857C535.553 326.69 535.252 326.442 534.968 325.957L533.514 323.482L534.413 327.71C534.903 330.016 535.569 331.311 536.263 331.311C536.956 331.311 537.622 330.016 538.112 327.71L539.012 323.482L537.554 325.957Z" fill="#21120D"/>
<path d="M538.244 326.753C537.805 327.165 537.346 327.376 536.881 327.376H536.262H535.643C535.178 327.376 534.717 327.165 534.28 326.753L532.05 324.646L533.429 328.244C534.18 330.208 535.199 331.311 536.264 331.311C537.326 331.311 538.347 330.208 539.099 328.244L540.477 324.646L538.244 326.753Z" fill="#3F1715"/>
<path d="M539.165 327.519C538.525 327.863 537.849 328.039 537.168 328.039H536.259H535.352C534.671 328.039 533.995 327.863 533.354 327.519L530.087 325.766L532.106 328.761C533.208 330.395 534.701 331.311 536.259 331.311C537.817 331.311 539.31 330.393 540.412 328.761L542.431 325.766L539.165 327.519Z" fill="#21120D"/>
<path d="M615.559 355.876C615.559 355.876 615.831 351.332 614.325 348.347C612.819 351.332 613.091 355.876 613.091 355.876H615.559Z" fill="#3F1715"/>
<path d="M616.002 354.414C615.631 355.042 615.241 355.364 614.85 355.364H614.326H613.802C613.408 355.364 613.018 355.042 612.65 354.414L610.767 351.21L611.931 356.685C612.566 359.672 613.428 361.349 614.326 361.349C615.224 361.349 616.086 359.67 616.721 356.685L617.885 351.21L616.002 354.414Z" fill="#21120D"/>
<path d="M616.893 355.445C616.326 355.98 615.729 356.254 615.128 356.254H614.325H613.522C612.919 356.254 612.322 355.98 611.755 355.445L608.866 352.717L610.651 357.377C611.624 359.92 612.946 361.349 614.323 361.349C615.7 361.349 617.02 359.92 617.995 357.377L619.78 352.717L616.893 355.445Z" fill="#3F1715"/>
<path d="M618.088 356.437C617.258 356.881 616.383 357.109 615.5 357.109H614.325H613.15C612.268 357.109 611.392 356.881 610.562 356.437L606.33 354.168L608.945 358.047C610.372 360.163 612.307 361.351 614.325 361.351C616.342 361.351 618.277 360.163 619.705 358.047L622.319 354.168L618.088 356.437Z" fill="#21120D"/>
<path d="M386.67 255.808L334.261 240.337L327.79 276.298L346.385 287.14L352.096 316.179L352.255 362.439L358.804 399.386L334.718 395.128L333.892 404.063L329.83 438.469L334.718 444.832L383.89 420.456L401.869 359.667L405.512 319.231L386.67 255.808Z" fill="#421819"/>
<path d="M304.302 316.178L309.95 362.439L314.786 396.687L331.258 404.775L337.341 440.21L292.034 414.12L269.265 359.666L269.045 319.23L285.546 258.784L329.713 243.411L333.8 274.68L323.156 287.378L304.302 316.178Z" fill="#612423"/>
<path d="M225.487 363.733L252.73 360.914L259.235 398.69L231.654 393.773L237.071 438.817L194.218 432.126L190.881 395.548L119.768 393.127L120.538 369.192L146.213 329.51L165.962 284.83L190.023 242.93L191.133 244.109L235.419 242.349L241.137 302.514L225.487 363.733ZM145.868 361.465L191.446 360.931L184.033 301.352L188.093 299.076L190.327 309.025L145.868 361.465Z" fill="#421819"/>
<path d="M255.021 357.726L249.891 388.462L186.079 394.555L117.213 400.217L115.491 367.438L139.012 324.753L160.512 281.074L192.319 241.334L188.395 300.343L152.694 361.315L204.286 367.932L255.021 357.726Z" fill="#612423"/>
<path d="M525.321 363.733L552.564 360.914L559.069 398.69L531.486 393.773L536.903 438.817L494.05 432.126L490.713 395.548L419.599 393.127L420.37 369.192L446.045 329.51L465.793 284.83L489.854 242.93L490.965 244.109L535.251 242.349L540.969 302.514L525.321 363.733ZM445.701 361.465L491.28 360.931L483.866 301.352L487.926 299.076L490.16 309.025L445.701 361.465Z" fill="#421819"/>
<path d="M554.857 357.726L549.726 388.462L485.913 394.555L417.05 400.217L415.327 367.438L438.846 324.753L460.346 281.074L492.153 241.334L488.229 300.343L452.53 361.315L504.122 367.932L554.857 357.726Z" fill="#612423"/>
<path d="M95.3069 245.282C83.8639 245.588 74.8909 255.619 74.8909 267.464V452.868H116.832V266.975C116.832 254.801 107.142 244.968 95.3069 245.282Z" fill="#D3573B"/>
<path d="M95.8619 245.275C89.2855 245.275 83.9557 254.99 83.9557 266.975V452.868H107.768V266.975C107.768 254.992 102.436 245.275 95.8619 245.275Z" fill="#F46640"/>
<path d="M95.8621 245.275C93.3976 245.275 91.3998 254.99 91.3998 266.975V452.868H100.326V266.975C100.325 254.992 98.3267 245.275 95.8621 245.275Z" fill="#F46640"/>
<path d="M87.2902 261.466L84.5538 263.951L83.9975 258.621H83.994L83.4377 263.957L80.6959 261.466L83.2624 265.649V265.65L83.9904 266.837V266.827L83.9958 266.837L84.7308 265.649L84.729 265.641L87.2902 261.466Z" fill="#F9A42D"/>
<path d="M111.021 261.466L108.283 263.951L107.729 258.621H107.723L107.169 263.957L104.425 261.466L106.992 265.649L106.994 265.65L107.722 266.837V266.827L107.727 266.837L108.46 265.649V265.641L111.021 261.466Z" fill="#F9A42D"/>
<path d="M99.1584 269.681L96.4202 272.167L95.8658 266.836H95.8604L95.3042 272.172L92.5624 269.681L95.1289 273.864V273.866L95.8568 275.052V275.043L95.8622 275.052L96.5973 273.864V273.856L99.1584 269.681Z" fill="#F9A42D"/>
<path d="M99.1584 290.141L96.4202 292.627L95.8658 287.296H95.8604L95.3042 292.632L92.5624 290.141L95.1289 294.324V294.326L95.8568 295.512V295.503L95.8622 295.512L96.5973 294.324V294.316L99.1584 290.141Z" fill="#F9A42D"/>
<path d="M99.1584 310.602L96.4202 313.088L95.8658 307.758H95.8604L95.3042 313.094L92.5624 310.602L95.1289 314.785V314.787L95.8568 315.973V315.964L95.8622 315.973L96.5973 314.785V314.778L99.1584 310.602Z" fill="#F9A42D"/>
<path d="M87.2902 280.454L84.5538 282.94L83.9975 277.608H83.994L83.4377 282.944L80.6959 280.454L83.2624 284.637V284.639L83.9904 285.825V285.816L83.9958 285.825L84.7308 284.637L84.729 284.628L87.2902 280.454Z" fill="#F9A42D"/>
<path d="M111.021 280.454L108.283 282.94L107.729 277.608H107.723L107.169 282.944L104.425 280.454L106.992 284.637L106.994 284.639L107.722 285.825V285.816L107.727 285.825L108.46 284.637V284.628L111.021 280.454Z" fill="#F9A42D"/>
<path d="M87.2902 299.442L84.5538 301.927L83.9975 296.597H83.994L83.4377 301.933L80.6959 299.442L83.2624 303.625V303.626L83.9904 304.813V304.804L83.9958 304.813L84.7308 303.625L84.729 303.617L87.2902 299.442Z" fill="#F9A42D"/>
<path d="M111.021 299.442L108.283 301.927L107.729 296.597H107.723L107.169 301.933L104.425 299.442L106.992 303.625L106.994 303.626L107.722 304.813V304.804L107.727 304.813L108.46 303.625V303.617L111.021 299.442Z" fill="#F9A42D"/>
<path d="M57.3898 277.882V270.218C57.3898 265.311 53.8395 260.912 49.1035 260.656C44.0527 260.382 39.8748 264.539 39.8748 269.705V284.393V287.515C39.8748 295.801 46.3653 302.517 54.3725 302.517H57.3898H76.6808V284.395H63.6818C60.2067 284.391 57.3898 281.476 57.3898 277.882Z" fill="#D3573B"/>
<path d="M54.3711 296.203C49.7335 296.203 45.974 292.312 45.974 287.513V269.705C45.974 268.191 47.1652 266.957 48.6317 266.957C50.1413 267.034 51.2877 268.526 51.2877 270.218V284.037C51.2877 287.719 54.1726 290.704 57.73 290.704H74.8891V296.201L54.3711 296.203Z" fill="#F46640"/>
<path d="M57.7784 293.534L55.0402 296.021L54.4858 290.689H54.4804L53.926 296.025L51.1824 293.534L53.7489 297.716L53.7507 297.718L54.4786 298.905V298.897L54.484 298.905L55.2173 297.716V297.709L57.7784 293.534Z" fill="#F9A42D"/>
<path d="M49.2759 280.454L46.5377 282.94L45.9832 277.608H45.9778L45.4216 282.944L42.6798 280.454L45.2464 284.637V284.639L45.9743 285.825V285.816L45.9796 285.825L46.7147 284.637L46.7129 284.628L49.2759 280.454Z" fill="#F9A42D"/>
<path d="M54.4791 268.809L51.7426 271.295L51.1864 265.964H51.1828L50.6266 271.298L47.8848 268.809L50.4495 272.992L50.4513 272.994L51.1792 274.18V274.171L51.1846 274.18L51.9197 272.992L51.9179 272.984L54.4791 268.809Z" fill="#F9A42D"/>
<path d="M70.5286 293.534L67.7903 296.021L67.2359 290.689H67.2305L66.6761 296.025L63.9325 293.534L66.499 297.716V297.718L67.227 298.905V298.897L67.2323 298.905L67.9674 297.716V297.709L70.5286 293.534Z" fill="#F9A42D"/>
<path d="M136.122 379.218V371.554C136.122 366.648 139.674 362.248 144.408 361.993C149.459 361.719 153.637 365.876 153.637 371.041V385.729V388.851C153.637 397.137 147.146 403.854 139.139 403.854H136.122H116.831V385.729H129.83C133.305 385.729 136.122 382.814 136.122 379.218Z" fill="#D3573B"/>
<path d="M139.139 397.539C143.776 397.539 147.536 393.649 147.536 388.85V371.041C147.536 369.527 146.345 368.293 144.878 368.293C143.369 368.371 142.222 369.862 142.222 371.554V385.374C142.222 389.055 139.337 392.04 135.78 392.04H116.831V397.537L139.139 397.539Z" fill="#F46640"/>
<path d="M135.732 394.87L138.471 397.358L139.025 392.025H139.03L139.585 397.361L142.328 394.87L139.762 399.055L139.034 400.241V400.234L139.029 400.241L138.293 399.055V399.045L135.732 394.87Z" fill="#F9A42D"/>
<path d="M144.238 381.79L146.975 384.276L147.529 378.946H147.535L148.091 384.28L150.833 381.79L148.266 385.973V385.975L147.538 387.161V387.152L147.533 387.161L146.798 385.973L146.799 385.966L144.238 381.79Z" fill="#F9A42D"/>
<path d="M139.03 370.145L141.768 372.631L142.323 367.301H142.328L142.882 372.637L145.624 370.145L143.059 374.328L143.058 374.33L142.33 375.516V375.507L142.324 375.516L141.591 374.328V374.321L139.03 370.145Z" fill="#F9A42D"/>
<path d="M122.982 394.87L125.72 397.358L126.275 392.025H126.28L126.836 397.361L129.578 394.87L127.012 399.055L126.284 400.241V400.234L126.278 400.241L125.543 399.055L125.545 399.045L122.982 394.87Z" fill="#F9A42D"/>
<path d="M87.2902 321.079L84.5538 323.566L83.9975 318.234H83.994L83.4377 323.57L80.6959 321.079L83.2624 325.264V325.265L83.9904 326.452V326.443L83.9958 326.452L84.7308 325.264L84.729 325.256L87.2902 321.079Z" fill="#F9A42D"/>
<path d="M111.021 321.079L108.283 323.566L107.729 318.234H107.723L107.169 323.57L104.425 321.079L106.992 325.264L106.994 325.265L107.722 326.452V326.443L107.727 326.452L108.46 325.264V325.256L111.021 321.079Z" fill="#F9A42D"/>
<path d="M99.1584 329.297L96.4202 331.782L95.8658 326.452H95.8604L95.3042 331.786L92.5624 329.297L95.1289 333.48V333.481L95.8568 334.668V334.659L95.8622 334.668L96.5973 333.48V333.472L99.1584 329.297Z" fill="#F9A42D"/>
<path d="M99.1584 349.755L96.4202 352.242L95.8658 346.91H95.8604L95.3042 352.246L92.5624 349.755L95.1289 353.939L95.8568 355.128V355.118L95.8622 355.128L96.5973 353.939V353.932L99.1584 349.755Z" fill="#F9A42D"/>
<path d="M99.1584 370.216L96.4202 372.703L95.8658 367.371H95.8604L95.3042 372.707L92.5624 370.216L95.1289 374.399V374.4L95.8568 375.589V375.579L95.8622 375.589L96.5973 374.399V374.391L99.1584 370.216Z" fill="#F9A42D"/>
<path d="M87.2902 340.068L84.5538 342.554L83.9975 337.224H83.994L83.4377 342.559L80.6959 340.068L83.2624 344.251V344.253L83.9904 345.439V345.43L83.9958 345.439L84.7308 344.251L84.729 344.244L87.2902 340.068Z" fill="#F9A42D"/>
<path d="M111.021 340.068L108.283 342.554L107.729 337.224H107.723L107.169 342.559L104.425 340.068L106.992 344.251L106.994 344.253L107.722 345.439V345.43L107.727 345.439L108.46 344.251V344.244L111.021 340.068Z" fill="#F9A42D"/>
<path d="M87.2902 359.058L84.5538 361.543L83.9975 356.213H83.994L83.4377 361.547L80.6959 359.058L83.2624 363.24V363.242L83.9904 364.429V364.419L83.9958 364.429L84.7308 363.24L84.729 363.233L87.2902 359.058Z" fill="#F9A42D"/>
<path d="M111.021 359.058L108.283 361.543L107.729 356.213H107.723L107.169 361.547L104.425 359.058L106.992 363.24L106.994 363.242L107.722 364.429V364.419L107.727 364.429L108.46 363.24V363.233L111.021 359.058Z" fill="#F9A42D"/>
<path d="M87.2902 381.864L84.5538 384.35L83.9975 379.02H83.994L83.4377 384.355L80.6959 381.864L83.2624 386.047V386.049L83.9904 387.235V387.226L83.9958 387.235L84.7308 386.047L84.729 386.04L87.2902 381.864Z" fill="#F9A42D"/>
<path d="M111.021 381.864L108.283 384.35L107.729 379.02H107.723L107.169 384.355L104.425 381.864L106.992 386.047L106.994 386.049L107.722 387.235V387.226L107.727 387.235L108.46 386.047V386.04L111.021 381.864Z" fill="#F9A42D"/>
<path d="M99.1584 390.08L96.4202 392.566L95.8658 387.235H95.8604L95.3042 392.571L92.5624 390.08L95.1289 394.263V394.265L95.8568 395.451V395.442L95.8622 395.451L96.5973 394.263V394.255L99.1584 390.08Z" fill="#F9A42D"/>
<path d="M99.1584 410.54L96.4202 413.026L95.8658 407.696H95.8604L95.3042 413.032L92.5624 410.54L95.1289 414.723V414.725L95.8568 415.911V415.902L95.8622 415.911L96.5973 414.723V414.716L99.1584 410.54Z" fill="#F9A42D"/>
<path d="M99.1584 431.001L96.4202 433.486L95.8658 428.156H95.8604L95.3042 433.492L92.5624 431.001L95.1289 435.184V435.185L95.8568 436.372V436.363L95.8622 436.372L96.5973 435.184V435.176L99.1584 431.001Z" fill="#F9A42D"/>
<path d="M87.2902 400.851L84.5538 403.339L83.9975 398.007H83.994L83.4377 403.343L80.6959 400.851L83.2624 405.036V405.038L83.9904 406.224V406.215L83.9958 406.224L84.7308 405.036L84.729 405.029L87.2902 400.851Z" fill="#F9A42D"/>
<path d="M111.021 400.851L108.283 403.339L107.729 398.007H107.723L107.169 403.343L104.425 400.851L106.992 405.036L106.994 405.038L107.722 406.224V406.215L107.727 406.224L108.46 405.036V405.029L111.021 400.851Z" fill="#F9A42D"/>
<path d="M87.2902 419.841L84.5538 422.326L83.9975 416.996H83.994L83.4377 422.332L80.6959 419.841L83.2624 424.024V424.025L83.9904 425.212V425.202L83.9958 425.212L84.7308 424.024L84.729 424.016L87.2902 419.841Z" fill="#F9A42D"/>
<path d="M111.021 419.841L108.283 422.326L107.729 416.996H107.723L107.169 422.332L104.425 419.841L106.992 424.024L106.994 424.025L107.722 425.212V425.202L107.727 425.212L108.46 424.024V424.016L111.021 419.841Z" fill="#F9A42D"/>
<path d="M97.7201 237.905C97.7201 237.905 98.1297 231.057 95.8601 226.556C93.5904 231.057 94 237.905 94 237.905H97.7201Z" fill="#3F1715"/>
<path d="M98.3865 235.701C97.8302 236.649 97.2418 237.132 96.6498 237.132H95.8611H95.0723C94.4803 237.132 93.8919 236.647 93.3357 235.701L90.4955 230.873L92.25 239.125C93.2069 243.626 94.5071 246.156 95.8611 246.156C97.215 246.156 98.5134 243.626 99.4721 239.125L101.228 230.873L98.3865 235.701Z" fill="#21120D"/>
<path d="M99.7338 237.256C98.8807 238.063 97.9793 238.474 97.0707 238.474H95.8617H94.6527C93.7441 238.474 92.8445 238.061 91.9913 237.256L87.6381 233.144L90.328 240.169C91.7964 244.002 93.787 246.155 95.8617 246.155C97.9364 246.155 99.9288 244 101.395 240.169L104.085 233.144L99.7338 237.256Z" fill="#3F1715"/>
<path d="M101.534 238.749C100.284 239.421 98.9636 239.764 97.633 239.764H95.8605H94.0881C92.7574 239.764 91.4375 239.421 90.1873 238.749L83.8094 235.329L87.7514 241.176C89.903 244.365 92.8182 246.156 95.8605 246.156C98.9028 246.156 101.82 244.365 103.97 241.176L107.912 235.329L101.534 238.749Z" fill="#21120D"/>
<path d="M49.0661 257.222C49.0661 257.222 49.3272 252.867 47.8839 250.005C46.4405 252.867 46.7017 257.222 46.7017 257.222H49.0661Z" fill="#3F1715"/>
<path d="M49.4923 255.82C49.1382 256.421 48.7644 256.731 48.3888 256.731H47.8862H47.3836C47.0063 256.731 46.6325 256.423 46.2783 255.82L44.4719 252.75L45.588 257.996C46.1961 260.86 47.0224 262.468 47.8844 262.468C48.7465 262.468 49.571 260.86 50.1809 257.996L51.2969 252.75L49.4923 255.82Z" fill="#21120D"/>
<path d="M50.3444 256.809C49.8007 257.321 49.2284 257.584 48.6507 257.584H47.8816H47.1126C46.5349 257.584 45.9625 257.321 45.4206 256.809L42.652 254.193L44.3636 258.661C45.2972 261.099 46.5635 262.468 47.8834 262.468C49.2033 262.468 50.4696 261.099 51.4032 258.661L53.1149 254.193L50.3444 256.809Z" fill="#3F1715"/>
<path d="M51.492 257.758C50.6961 258.183 49.8573 258.402 49.0113 258.402H47.8845H46.7578C45.9118 258.402 45.073 258.183 44.2771 257.758L40.2207 255.583L42.7282 259.299C44.0964 261.328 45.9511 262.466 47.8845 262.466C49.8179 262.466 51.6726 261.326 53.0408 259.299L55.5483 255.583L51.492 257.758Z" fill="#21120D"/>
<path d="M146.331 356.67C146.331 356.67 146.669 351.029 144.8 347.323C142.931 351.03 143.269 356.67 143.269 356.67H146.331Z" fill="#3F1715"/>
<path d="M146.879 354.856C146.421 355.635 145.936 356.035 145.448 356.035H144.797H144.148C143.659 356.035 143.176 355.637 142.717 354.856L140.377 350.879L141.823 357.675C142.611 361.382 143.681 363.466 144.797 363.466C145.913 363.466 146.982 361.384 147.771 357.675L149.216 350.879L146.879 354.856Z" fill="#21120D"/>
<path d="M147.99 356.134C147.287 356.799 146.545 357.138 145.798 357.138H144.801H143.805C143.058 357.138 142.315 356.797 141.612 356.134L138.026 352.748L140.242 358.535C141.452 361.692 143.092 363.465 144.8 363.465C146.509 363.465 148.15 361.692 149.359 358.535L151.575 352.748L147.99 356.134Z" fill="#3F1715"/>
<path d="M149.472 357.366C148.442 357.919 147.354 358.2 146.26 358.2H144.8H143.341C142.244 358.2 141.159 357.917 140.128 357.366L134.876 354.549L138.124 359.365C139.894 361.991 142.298 363.466 144.802 363.466C147.308 363.466 149.71 361.991 151.48 359.365L154.726 354.549L149.472 357.366Z" fill="#21120D"/>
<path d="M651.56 428.158C650.347 428.158 629.806 460.667 627.713 463.769C617.198 479.358 596.23 481.798 580.135 490.965C567.871 497.949 558.258 509.123 550.644 521.277C540.591 537.327 532.385 556.61 515.553 564.515C502.055 570.854 486.078 568.039 472.421 562.079C449.648 552.142 433.038 540.473 407.966 537.134C383.97 533.938 359.089 537.345 336.862 547.291C314.623 557.243 291.68 573.802 268.476 566.652C239.083 557.583 227.12 514.753 196.824 509.913C174.997 506.415 155.303 524.96 133.279 526.624C111.846 528.254 92.2668 513.546 78.5971 496.395C64.9256 479.242 54.9653 459.033 40.1617 442.916C34.7944 437.092 29.0675 432.302 22.9955 428.158C22.9919 428.158 648.793 428.158 651.56 428.158Z" fill="#EE9730"/>
<path d="M651.567 428.156C650.354 428.156 629.806 460.663 627.711 463.776C617.205 479.356 596.239 481.803 580.135 490.972C567.878 497.957 558.254 509.122 550.653 521.28C540.596 537.325 532.394 556.606 515.558 564.52C502.059 570.853 486.091 568.035 472.426 562.073C449.648 552.146 433.036 540.469 407.968 537.14C383.977 533.934 359.089 537.341 336.865 547.299C314.625 557.241 291.683 573.813 268.486 566.658C239.094 557.581 227.12 514.762 196.829 509.913C175.009 506.413 155.314 524.967 133.283 526.623C111.851 528.25 92.2756 513.553 78.597 496.393C64.9327 479.249 54.9652 459.038 40.1652 442.916C34.7925 437.094 29.0746 432.308 22.999 428.158C22.999 428.158 39.8808 428.158 68.1055 428.158C71.4429 433.129 74.8858 438.023 78.597 442.685C92.2756 459.829 111.851 474.541 133.283 472.916C155.312 471.242 175.007 452.705 196.829 456.19C227.12 461.037 239.094 503.874 268.486 512.935C291.683 520.09 314.627 503.535 336.865 493.576C359.089 483.633 383.978 480.226 407.968 483.417C433.036 486.761 449.648 498.423 472.426 508.365C486.091 514.327 502.059 517.131 515.558 510.797C532.395 502.898 540.596 483.617 550.653 467.558C558.256 455.4 567.878 444.234 580.135 437.249C586.615 433.564 593.858 430.977 600.923 428.158L651.567 428.156Z" fill="#F9A42D"/>
<path d="M346.678 134.402H475.385C474.895 121.552 464.681 111.305 452.149 111.305H452.144C446.996 99.2764 435.374 90.8794 421.846 90.8794C405.586 90.8794 392.074 103.006 389.266 118.989C388.681 118.922 388.088 118.88 387.483 118.88C382.241 118.88 377.589 121.506 374.686 125.55C373.692 125.297 372.653 125.158 371.583 125.158C367.79 125.158 364.388 126.849 362.023 129.539C360.444 128.685 358.645 128.199 356.742 128.199C352.394 128.199 348.611 130.706 346.678 134.402Z" fill="#FAFBED"/>
<path d="M503.353 136.274H330.662C330.026 136.274 329.509 135.739 329.509 135.08C329.509 134.421 330.026 133.886 330.662 133.886H503.353C503.99 133.886 504.507 134.421 504.507 135.08C504.509 135.739 503.992 136.274 503.353 136.274Z" fill="#FAFBED"/>
<path d="M375.991 142.995H312.672C312.036 142.995 311.519 142.461 311.519 141.802C311.519 141.143 312.036 140.608 312.672 140.608H375.991C376.628 140.608 377.145 141.143 377.145 141.802C377.145 142.462 376.63 142.995 375.991 142.995Z" fill="#FAFBED"/>
<path d="M450.077 142.995H415.303C414.666 142.995 414.149 142.461 414.149 141.802C414.149 141.143 414.666 140.608 415.303 140.608H450.077C450.714 140.608 451.231 141.143 451.231 141.802C451.231 142.462 450.714 142.995 450.077 142.995Z" fill="#FAFBED"/>
<path d="M284.516 202.665H176.076C176.489 191.838 185.094 183.204 195.653 183.204H195.657C199.994 173.071 209.786 165.995 221.183 165.995C234.883 165.995 246.267 176.211 248.633 189.678C249.125 189.62 249.628 189.587 250.135 189.587C254.551 189.587 258.472 191.801 260.919 195.208C261.756 194.995 262.632 194.877 263.533 194.877C266.729 194.877 269.596 196.302 271.587 198.567C272.918 197.849 274.433 197.438 276.037 197.438C279.702 197.436 282.889 199.55 284.516 202.665Z" fill="#FAFBED"/>
<path d="M152.513 204.242H298.009C298.546 204.242 298.982 203.792 298.982 203.235C298.982 202.68 298.548 202.228 298.009 202.228H152.513C151.976 202.228 151.54 202.678 151.54 203.235C151.54 203.792 151.976 204.242 152.513 204.242Z" fill="#FAFBED"/>
<path d="M259.817 209.905H313.166C313.702 209.905 314.138 209.455 314.138 208.898C314.138 208.343 313.704 207.892 313.166 207.892H259.817C259.281 207.892 258.844 208.341 258.844 208.898C258.846 209.455 259.281 209.905 259.817 209.905Z" fill="#FAFBED"/>
<path d="M197.397 209.905H226.695C227.232 209.905 227.668 209.455 227.668 208.898C227.668 208.343 227.233 207.892 226.695 207.892H197.397C196.861 207.892 196.424 208.341 196.424 208.898C196.426 209.455 196.861 209.905 197.397 209.905Z" fill="#FAFBED"/>
</svg>
