<svg width="1464" height="229" viewBox="0 0 1464 229" fill="none" xmlns="http://www.w3.org/2000/svg">
<g clip-path="url(#clip0_76_1330)">
<mask id="path-1-inside-1_76_1330" fill="white">
<path d="M295 129.275C173.134 145.544 0 229 0 229H1464C1464 229 1269.87 60.0135 1102.5 70.4656C971.694 78.6343 874.427 186.292 745.5 207.588C562.328 237.844 479.238 104.679 295 129.275Z"/>
</mask>
<path d="M0 229L-141.989 -65.5642L0 556V229ZM295 129.275L338.27 453.399L338.27 453.399L295 129.275ZM745.5 207.588L692.209 -115.041L692.209 -115.041L745.5 207.588ZM1102.5 70.4656L1082.12 -255.899L1082.12 -255.899L1102.5 70.4656ZM1464 229V556H2337.69L1678.7 -17.6432L1464 229ZM0 229C141.989 523.564 141.961 523.578 141.934 523.591C141.926 523.595 141.899 523.608 141.882 523.616C141.849 523.632 141.819 523.646 141.79 523.66C141.734 523.687 141.688 523.709 141.652 523.727C141.579 523.761 141.546 523.777 141.552 523.774C141.564 523.769 141.73 523.689 142.045 523.54C142.674 523.242 143.89 522.668 145.64 521.854C149.149 520.221 154.745 517.649 162.011 514.412C176.691 507.873 197.403 498.972 220.958 489.755C274.879 468.656 318.251 456.072 338.27 453.399L295 129.275L251.73 -194.849C149.883 -181.253 45.7548 -143.974 -17.3573 -119.278C-52.3189 -105.598 -82.5076 -92.6178 -104.098 -83.0005C-114.968 -78.1589 -123.85 -74.084 -130.285 -71.0894C-133.507 -69.5899 -136.13 -68.3548 -138.096 -67.4227C-139.08 -66.9564 -139.901 -66.5653 -140.551 -66.2541C-140.877 -66.0985 -141.16 -65.9628 -141.4 -65.8476C-141.52 -65.7901 -141.629 -65.7376 -141.727 -65.6903C-141.776 -65.6667 -141.823 -65.6444 -141.866 -65.6233C-141.888 -65.6128 -141.919 -65.598 -141.93 -65.5928C-141.96 -65.5783 -141.989 -65.5642 0 229ZM295 129.275L338.27 453.399C339.955 453.175 339.544 453.015 342.872 453.794C351.793 455.88 362.484 459.614 400.168 474.549C469.413 501.993 610.658 561.291 798.791 530.216L745.5 207.588L692.209 -115.041C691.37 -114.902 693.473 -114.823 692.588 -115.014C686.299 -116.368 676.741 -119.328 641.132 -133.441C576.677 -158.986 437.282 -219.621 251.73 -194.849L295 129.275ZM745.5 207.588L798.791 530.216C928.43 508.802 1037.17 444.196 1078.41 421.972C1139.1 389.272 1137.81 395.897 1122.88 396.83L1102.5 70.4656L1082.12 -255.899C936.381 -246.797 821.061 -182.259 768.18 -153.764C695.856 -114.793 691.497 -114.923 692.209 -115.041L745.5 207.588ZM1102.5 70.4656L1122.88 396.83C1108.1 397.753 1106.85 394.406 1123.12 400.008C1138.12 405.172 1157.72 414.404 1179.96 427.515C1201.54 440.231 1220.65 453.66 1234.31 463.948C1240.95 468.952 1245.83 472.855 1248.54 475.068C1249.88 476.166 1250.66 476.817 1250.81 476.945C1250.88 477.008 1250.8 476.938 1250.55 476.725C1250.43 476.618 1250.26 476.476 1250.05 476.296C1249.95 476.206 1249.83 476.107 1249.71 475.998C1249.65 475.944 1249.58 475.887 1249.51 475.828C1249.48 475.798 1249.43 475.752 1249.41 475.737C1249.35 475.691 1249.3 475.643 1464 229C1678.7 -17.6432 1678.64 -17.6918 1678.59 -17.7412C1678.57 -17.7585 1678.51 -17.8086 1678.47 -17.8432C1678.39 -17.9127 1678.31 -17.9848 1678.22 -18.0596C1678.05 -18.2093 1677.86 -18.3698 1677.66 -18.5409C1677.27 -18.883 1676.82 -19.2678 1676.33 -19.6938C1675.33 -20.5456 1674.14 -21.5633 1672.75 -22.7353C1669.98 -25.0776 1666.42 -28.0468 1662.13 -31.5498C1653.57 -38.5371 1641.97 -47.7548 1627.8 -58.4298C1599.83 -79.5001 1559.95 -107.665 1512.07 -135.888C1430.15 -184.176 1267.97 -267.505 1082.12 -255.899L1102.5 70.4656ZM1464 229V-98H0V229V556H1464V229Z" fill="#FFFAEF" mask="url(#path-1-inside-1_76_1330)"/>
<path d="M918.242 96.8894C972.918 66.3653 1036.76 32.9369 1102.19 29.5836C1102.76 29.5484 1103.34 29.5154 1103.92 29.4846C1111.9 29.1106 1111.37 29.557 1113.61 29.5385C1119.77 29.5756 1123.42 29.2719 1127.89 29.4671C1149.56 30.5065 1169.62 33.8111 1190.14 38.918C1211.22 44.4939 1200.92 42.9752 1208.12 45.2486C1222.08 50.0108 1210.49 45.045 1216.12 46.4671C1232.23 51.6292 1248.15 57.8248 1263.61 64.6431C1259.76 63.1258 1255.91 61.6538 1252 60.1987C1258.83 62.9802 1268.4 67.3348 1256.93 62.8614C1259.4 63.9981 1261.69 65.0937 1264.23 66.2954C1265.15 66.1162 1277.04 71.3944 1278.23 71.6642C1279.43 71.8884 1272.75 68.8989 1272.8 68.9035C1273.44 68.6047 1300.37 82.1106 1302.17 83.2819C1307.2 85.9982 1302.47 84.2376 1306.79 86.4482C1314.25 90.3176 1309.95 86.5769 1319.07 93.4276C1323.27 95.1264 1323.52 95.5792 1328.46 98.4143C1329.11 98.7884 1328.76 98.2294 1329.05 98.3852C1336.62 102.45 1330.6 99.6739 1330.63 99.7239C1331.02 100.547 1339.2 105.02 1340.83 106.067C1361.56 119.169 1376.24 129.176 1397.41 144.123C1401.99 147.33 1415.75 157.026 1420.11 160.452C1424.26 163.673 1421.7 162.235 1423.86 164.095C1428.07 166.127 1431.56 168.625 1438.91 175.19C1442.42 177.105 1441.6 177.127 1447.28 181.542C1451.73 184.983 1460.7 191.374 1464.88 196.013C1459.52 191.251 1459.62 191.781 1453.1 186.613C1451.04 184.801 1427.78 166.483 1429.15 168.533C1429.68 169.372 1437.82 175.294 1437.91 175.468C1439.29 177.051 1435.04 174.291 1431.15 171.071C1432.18 171.774 1433.4 172.618 1434.46 173.348C1426.04 166.209 1431.01 172.393 1425.43 166.079C1424.73 165.295 1425.18 165.375 1423.93 164.165C1423.6 164.021 1425.15 165.468 1423.68 164.402C1422.16 163.305 1419.81 161.03 1419.17 160.987C1418.29 160.953 1424.22 165.157 1424.74 165.597C1424.75 165.599 1424.76 165.6 1424.76 165.601C1428.61 168.86 1420.2 162.517 1419.86 162.342C1417.13 160.693 1418.76 162.203 1414.69 159.512C1412.3 157.921 1406.93 153.901 1404.7 152.364C1402.55 150.877 1405.71 153.446 1404.25 152.461C1402.74 151.438 1401.23 150.139 1399.55 149.015C1398.83 148.541 1398.71 148.784 1398.37 148.551C1394.64 146.047 1397.38 147.297 1393.98 144.957C1391.78 143.437 1384.31 138.937 1389.2 142.481C1386.78 140.88 1384.39 139.295 1381.91 137.667C1383.41 138.781 1384.97 139.904 1386.4 140.994C1381.91 137.771 1379.59 136.773 1376.75 134.919C1373.91 133.065 1371.55 130.857 1368.27 129.038C1361.22 125.124 1378.15 135.847 1380.02 137.3C1380.79 137.863 1377.52 136.186 1377.04 135.88C1374.92 134.53 1372.58 132.613 1370.91 131.538C1365.03 127.75 1361.24 125.806 1355.51 122.305C1336.23 110.468 1311.63 96.7848 1292.39 87.3282C1285.2 83.771 1281.1 81.3363 1277.84 79.8127C1270.2 76.29 1269.13 76.2545 1262.43 73.3314C1252.47 68.9812 1238.35 63.0488 1229.83 59.9721C1223.93 57.8067 1218.41 56.4056 1216.86 55.915C1195.31 48.9077 1168.44 42.8668 1149.88 40.7802C1141.14 39.7341 1137.03 39.083 1135.23 38.9544C1127.45 38.5293 1129.5 39.0165 1123.21 38.7845C1119.82 38.6944 1119.19 38.3556 1118.74 38.3357C1114.71 38.2135 1113.91 38.6977 1110.79 38.7917C1108.11 38.8822 1105.45 39.0097 1102.8 39.1768C1087.68 40.1366 1072.96 42.2507 1058.17 45.7863C1056.91 46.0888 1056.97 45.8638 1056.16 46.0762C1052.67 47.0122 1054.38 46.9018 1050.74 47.8936C1043.19 49.9837 1035.47 52.3296 1027.59 55.0504C1026.81 55.321 1026.38 55.1935 1024.6 55.8333C1022.81 56.4778 1021.55 57.202 1018.77 58.2401C1011.5 60.9623 1004.28 63.6144 996.73 66.9346C995.481 67.4846 994.066 68.4628 992.199 69.3067C986.34 71.9376 977.623 75.8045 972.684 78.2626C956.363 86.3487 941.652 94.5677 926.564 102.891C923.019 104.848 919.738 106.33 917.889 107.347C913.723 109.639 916.994 108.143 912.782 110.48C878.377 129.542 843.443 148.76 805.713 162.877C790.938 168.468 772.497 174.292 757.434 177.301C751.508 178.493 750.105 178.371 746.172 179.015C745.957 179.05 745.735 179.086 745.504 179.124C737.455 180.421 736.157 181.109 727.79 182.158C720.909 182.982 713.409 183.104 706.23 183.462C699.201 183.785 696.013 184.347 687.866 184.333C681.288 184.318 671.854 183.646 664.708 183.025C597.721 177.879 537.877 148.435 477.049 124.826C455.461 116.494 431.112 108.579 407.966 103.18C405.785 102.679 409.242 102.9 402.175 101.569C398.438 100.896 393.017 100.24 384.281 99.0082C355.587 94.9559 325.537 94.656 295.527 98.6147C270.991 101.839 246.533 107.444 222.99 114.076C144.86 136.452 68.5212 172.24 2.71753 198.349C1.73496 198.762 1.55673 198.721 1.01869 198.822C0.880636 198.808 0.858956 198.729 0.817639 198.655C0.781818 198.578 0.733657 198.502 0.713129 198.412C0.809771 197.964 1.42224 197.25 2.43754 196.575C3.18174 196.344 4.27881 195.956 5.14393 195.686C5.95927 195.44 6.86931 195.155 7.93017 194.795C9.51877 192.445 9.3361 192.92 17.9297 189.041C23.1558 186.698 18.7093 188.085 21.499 186.598C24.9379 184.721 41.9274 176.266 38.9725 178.655C39.961 178.03 40.8872 177.442 41.8828 176.82C54.3301 171.109 66.3861 165.64 78.5735 160.241C80.7361 159.285 80.6631 158.99 82.833 158.037C88.6946 155.464 93.4379 153.735 99.5859 151.226C102.948 149.858 103.202 149.382 107.586 147.666C111.981 145.955 112.053 146.424 117.807 143.641C113.706 144.59 131.199 138.296 137.416 135.989C138.291 135.655 145.533 132.427 149.478 131.079C153.429 129.719 159.584 127.889 165.64 125.602C168.488 124.528 170.12 123.537 173.22 122.468C175.402 121.716 178.15 121.184 180.936 120.285C183.721 119.38 189.653 117.16 190.759 116.808C194.745 115.526 190.419 117.162 193.153 116.313C206.354 112.204 221.83 107.85 234.976 104.282C236.603 103.84 234.268 104.131 234.482 104.066C245.468 100.875 239.65 102.776 242.7 102.288C245.591 101.735 266.902 96.8532 266.965 96.4053C267.751 96.9119 272.378 95.491 273.648 95.2392C278.482 94.2681 277.636 94.9982 282.255 94.0262C283.947 93.6765 280.567 93.8557 282.4 93.558C286.317 92.9264 289.985 92.8052 294.667 92.336C295.533 92.2487 296.432 92.1511 297.373 92.0391C298.873 91.8634 299.329 91.5234 301.977 91.2234C304.659 90.8747 315.59 90.2371 310.506 90.1097C317.298 89.998 318.716 89.6261 326.474 89.2743C328.393 89.1998 331.076 89.5361 335.302 89.3326C336.734 89.2669 336.69 88.8364 338.84 88.8214C343.697 88.7982 348.443 89.306 354.658 89.6017C366.297 90.1564 378.819 91.1126 390.785 93.1372C394.072 93.7029 393.191 93.9773 397.928 94.8273C398.634 94.9462 404.347 95.6423 407.636 96.3831C409.629 96.7833 419.618 99.3543 421.665 99.9276C425.015 100.807 425.713 100.569 427.521 101.131C432.738 102.788 428.32 102.197 434.912 103.182C436.875 104.222 440.572 105.272 441.579 106.179C443.891 106.226 446.498 107.656 450.69 108.794C454.881 109.933 458.622 109.932 459.204 111.512C461.186 112.005 469.41 114.635 470.774 115.126C474.829 116.549 472.548 116.097 475.603 117.176C476.14 117.368 475.67 116.923 479.084 118.233C481.332 119.053 497.701 125.468 498.651 125.913C509.62 130.718 492.507 123.711 489.993 123.044C489.593 122.812 489.197 122.582 488.768 122.34C483.875 120.317 486.485 121.925 488.672 122.915C490.861 123.905 495.111 125.314 496.895 126.223C497.785 126.676 496.962 127.065 494.207 125.888C497.112 127.26 492.962 125.85 494.069 126.497C495.293 127.192 508.646 132.629 508.851 132.325C506.36 131.302 503.25 130.061 500.726 129.034C497.656 127.113 508.522 129.107 517.386 133.663C523.814 136.956 512.632 132.963 528.607 138.869C526.191 137.864 524.161 136.976 521.967 136.056C521.914 135.516 525.29 137.457 527.192 138.062C528.105 138.352 522.775 135.825 527.556 137.64C531.374 139.925 534.767 140.558 541.615 143.269C539.667 142.629 537.717 141.982 535.771 141.334C547.151 146.419 520.224 135.837 542.618 145.073C539.898 144.022 537.207 142.942 534.475 141.882C535.699 142.645 533.314 142.485 534.436 143.104C537.38 144.727 542.06 146.325 545.839 147.841C547.492 148.504 546.391 148.288 546.529 148.343C548.794 149.25 548.398 148.782 550.401 149.537C552.917 150.494 560.103 153.512 561.297 153.91C564.386 154.965 559.493 152.537 559.805 152.604C561.847 153.072 565.755 154.75 565.671 154.327C555.956 151.145 528.692 140.015 553.716 149.135C547.084 145.936 549.344 145.979 559.222 149.65C567.396 152.639 562.017 150.987 566.151 152.889C566.681 153.157 577.625 157.207 578.281 157.133C577.647 157.536 581.085 159.248 578.472 159C578.087 158.968 573.562 157.369 574.986 158.374C575.696 158.88 577.803 160.161 577.337 160.329C578.343 160.444 579.402 160.546 580.426 160.651C587.297 162.867 588.188 163.364 591.843 164.924C591.72 164.709 588.445 162.965 593.673 164.794C593.942 164.888 594.1 165.208 596.767 166.132C602.132 167.966 603.271 168.349 598.867 167.866C610.335 170.665 612.563 172.116 624.476 174.544C622.344 173.08 618.086 172.486 607.35 169.841C606.942 169.496 606.783 169.22 606.364 168.869C620.479 173.077 613.445 171.202 621.685 172.679C623.708 173.069 634.307 175.333 630.884 173.984C630.064 173.685 623.489 172.307 624.297 172.227C624.441 172.235 632.469 173.778 633.182 173.951C642.014 176.262 625.847 174.286 650.659 177.842C651.35 177.927 651.629 177.685 652.957 177.817C655.46 178.06 655.454 178.382 657.707 178.565C659.961 178.744 663.139 178.637 666.517 179.321C672.674 180.559 657.871 179.804 651.51 178.467C648.584 179.796 695.479 183.031 698.467 181.965C711.073 181.269 690.051 182.036 688.912 181.606C688.464 181.482 688.691 180.101 683.386 180.892C681.809 181.129 688.357 181.642 684.439 181.703C680.525 181.747 682.09 181.366 681.807 181.331C680.856 181.208 676.592 181.177 676.06 181.083C667.777 179.668 668.566 178.448 679.584 180.994C684.467 180.737 673.348 179.548 679.39 179.5C686.624 179.423 691.9 180.026 692.839 180.057C703.845 180.25 691.19 179.595 704.498 179.5C711.965 179.332 693.341 180.649 710.418 179.768C724.552 178.715 716.883 178.901 717.851 178.099C718.08 177.902 725.763 177.033 715.288 177.991C715.008 178.207 714.471 178.505 713.822 178.732C711.272 178.779 706.782 178.045 705.43 178.064C698.702 178.169 699.113 178.628 695.119 178.097C697.995 178.712 693.318 178.384 691.585 178.511C685.153 178.938 693.54 179.377 679.199 178.289C681.101 178.675 682.748 179.028 684.554 179.377C682.829 179.345 681.142 179.301 679.371 179.239C676.769 178.485 667.618 177.996 675.96 177.813C666.017 177.063 661.989 176.69 659.743 177.001C659.318 177.056 657.816 176.936 656.067 176.738C656.38 176.923 656.752 177.424 656.469 177.448C653.937 177.652 650.234 176.297 651.58 176.15C650.346 175.97 649.374 175.815 649.031 175.758C646.859 175.399 651.172 175.714 649.419 175.366C648.834 175.266 642.725 174.398 642.634 174.249C642.031 173.314 651.896 175.743 631.97 171.666C631.339 172.279 640.712 173.842 638.183 174.126C635.456 174.462 630.402 172.394 629.077 173.105C628.685 172.862 628.525 172.693 628.197 172.439C620.071 171.148 620.099 170.251 617.699 169.512C613.03 168.157 591.283 162.167 610.637 168.166C607.748 167.489 604.817 166.725 601.972 165.982C601.723 164.365 603.278 165.584 589.791 161.191C586.833 160.204 586.082 159.29 582.935 159.051C583.555 158.49 574.682 155.956 573.908 155.569C568.892 153.233 588.496 159.099 590.622 161.03C594.073 161.568 593.861 162.213 597.594 163.233C602.963 164.666 603.727 164.76 610.01 166.948C616.425 168.057 585.599 159.76 604.452 164.158C620.138 170.264 704.85 181.236 744.752 170.631C751.39 169.47 756.711 168.293 760.36 167.441C806.173 155.805 828.748 144.206 866.889 124.879C870.671 123.022 898.732 107.643 893.282 111.529C892.504 112.098 880.56 118.969 891.237 113.864C888.948 114.689 894.923 111.134 895.413 110.816C906.695 103.563 899.793 107.119 918.242 96.8894ZM976.903 74.0934C952.27 86.1606 970.544 77.6493 966.008 81.293C969.138 79.7041 972.278 78.1348 975.428 76.5911C974.567 76.9286 973.716 77.263 972.855 77.6043C972.852 77.6061 972.848 77.6078 972.845 77.6096C974.189 76.4345 975.549 75.2586 976.903 74.0934ZM1392.59 145.787C1391.58 145.277 1390.68 144.851 1389.64 144.324C1386.74 142.253 1383.77 140.165 1380.73 138.052C1381.15 138.208 1381.57 138.355 1382 138.511C1385.62 140.97 1389.08 143.356 1392.59 145.787ZM647.63 178.108C642.567 176.893 642.911 177.783 636.22 176.233C636.953 176.967 637.767 177.699 638.54 178.427C643.714 179.213 644.922 179.181 650.597 180.113C649.958 179.835 649.306 179.552 648.687 179.271C647.736 179.178 646.725 179.078 645.809 178.977C644.433 178.249 653.492 179.459 647.648 178.109C647.642 178.109 647.636 178.108 647.63 178.108ZM595.92 166.765C593.244 165.927 582.874 162.325 581.371 162.053C576.247 161.341 606.037 170.206 583.971 164.005C584.034 164.148 583.9 164.224 583.864 164.334C587.821 165.665 591.797 166.943 595.847 168.178C595.761 167.673 596.034 167.281 595.92 166.765ZM889.345 121.176C885.597 123.193 867.819 133.059 873.919 130.421C875.721 129.654 883.376 124.712 886.416 123.093C888.388 122.047 886.387 123.605 890.185 121.365C889.927 121.299 889.725 121.18 889.335 121.182C889.338 121.18 889.341 121.178 889.345 121.176ZM895.197 115.238C891.377 117.42 887.506 119.64 883.646 121.814C886.716 120.694 892.156 117.378 892.8 117.778C891.761 118.404 890.733 119.022 889.692 119.647C888.808 119.964 887.936 120.274 887.065 120.583C883.892 122.71 886.008 121.778 879.718 125.04C883.962 123.891 884.938 124.005 895.094 117.29C893.344 118.867 896.092 119.384 901.371 115.03C902.36 114.217 897.683 116.616 897.612 116.612C896.681 116.595 899.091 114.93 898.12 114.964C897.684 114.978 894.878 116.524 894.326 116.513C894.068 116.502 896.553 114.699 895.197 115.238ZM904.015 113.064C902.958 113.97 907.357 112.3 910.826 110.222C916.234 106.984 907.237 111.248 904.015 113.064ZM1392.61 145.8C1392.61 145.796 1392.6 145.791 1392.59 145.787C1392.6 145.788 1392.6 145.79 1392.6 145.792C1392.61 145.795 1392.61 145.797 1392.61 145.8ZM609.652 170.936C606.398 170.345 601.731 169.002 601.974 169.463C600.458 168.959 598.93 168.444 597.425 167.925C597.407 168.039 597.404 168.158 597.387 168.27C601.957 169.683 606.589 171.032 611.223 172.29C610.717 171.845 610.256 171.409 609.652 170.936ZM560.041 154.711C554.427 152.57 558.963 154.82 557.641 154.591C556.313 154.365 551.373 152.263 551.835 152.821C555.14 154.103 558.595 155.42 561.958 156.673C561.205 155.98 560.724 155.379 560.03 154.707C560.034 154.709 560.037 154.71 560.041 154.711ZM1082.39 39.3459C1078.41 39.8485 1079.94 39.1366 1072.19 40.9996C1072.19 40.9985 1072.2 40.9974 1072.21 40.9963C1079.72 39.9023 1089.38 38.8284 1097.64 37.8385C1092.52 37.8677 1088.68 38.6174 1082.39 39.3459ZM661.712 180.996C663.465 180.869 655.457 179.773 653.685 179.814C650.78 179.929 659.003 181.239 661.712 180.996ZM1242.85 60.2159C1248.97 61.5894 1238.45 56.1755 1226.62 52.612C1225.6 52.2922 1233.01 55.2183 1230.72 54.6134C1230.5 54.5477 1226.38 53.0826 1225.31 52.8661C1224.25 52.645 1225.22 53.3035 1223.5 52.8605C1220.49 52.0703 1213.97 49.5356 1211.64 49.1512C1211.34 49.0961 1215.37 50.7847 1215.62 50.8862C1219.78 52.4689 1224.02 53.3358 1224.68 53.5559C1228.04 54.688 1227.39 54.9237 1228.21 55.3126C1229.74 56.0472 1232.6 56.8731 1232.8 56.9592C1237.72 59.1366 1226.21 54.8686 1224.57 54.5166C1220.21 53.4967 1224.01 55.1008 1213.77 52.0698C1212.8 51.7795 1201.2 48.1834 1215.67 53.1688C1186.69 45.3395 1229.93 58.0383 1234.45 59.9891C1236.61 60.6739 1233.54 59.1108 1234.89 59.412C1237.97 60.0917 1242.99 61.9401 1242.75 61.2205C1242.24 59.684 1235.38 57.9407 1230.88 56.1321C1231.45 56.0492 1231.72 55.8667 1232.7 55.9383C1231.22 55.7542 1242.42 60.0888 1242.85 60.2182C1242.85 60.2174 1242.85 60.2167 1242.85 60.2159ZM1169.3 40.3705C1162.74 38.8123 1163.05 39.6632 1157.01 38.3001C1151.52 38.2211 1162.15 39.7065 1163.38 39.9972C1169 41.1386 1168.7 41.8607 1174.47 42.7596C1172.59 41.9196 1171.08 41.1608 1169.3 40.3705ZM1225.91 55.8744C1221.5 54.7794 1229.15 57.4055 1229.43 57.6003C1232.55 59.4735 1209.7 51.568 1225.91 55.8744ZM865.261 132.202C863.199 133.235 864.674 132.903 862.916 133.931C861.16 134.968 854.787 137.811 855.047 137.938C855.315 138.082 867.008 132.867 855.604 138.76C856.052 138.685 855.966 138.839 856.207 138.852C859.367 137.277 862.542 135.669 865.678 134.056C863.782 134.603 861.834 135.148 860.01 135.659C861.635 134.492 862.801 134.332 862.895 134.284C862.895 134.284 862.895 134.284 862.895 134.283C866.163 132.576 869.885 129.87 865.261 132.202ZM1027.55 52.3208C1027.88 51.1924 1023.13 53.99 1021.1 54.8788C1019.06 55.7531 1016.1 56.5153 1017.31 56.4888C1020.75 55.4561 1027.51 52.4338 1027.55 52.3196C1027.55 52.32 1027.55 52.3204 1027.55 52.3208ZM1132.95 35.8542C1127.28 35.7842 1128.17 36.042 1121.28 35.6117C1121.54 35.8454 1121.81 36.0846 1122.07 36.3156C1127.53 36.4529 1127.17 35.7569 1133.52 36.3823C1134.55 36.4971 1132.3 36.8661 1136.98 37.0268C1135.64 36.641 1134.29 36.2338 1132.95 35.8542ZM1105 36.5751C1111.43 36.2431 1116.54 34.209 1104.63 35.5378C1103.92 35.6264 1103.07 35.8625 1102.6 36.0933C1102.2 36.2924 1102.09 36.4851 1102.63 36.5734C1103.03 36.6392 1103.77 36.6482 1105 36.5751ZM918.148 103.432C908.414 108.766 919.589 102.913 922.254 101.767C899.766 114.489 924.765 100.277 927.484 99.8762C930.117 98.1153 934.996 94.7343 929.166 97.7457C926.734 99.0051 927.747 98.7716 927.602 98.8498C923.152 101.223 923.464 100.522 918.148 103.432ZM1180.82 42.6602C1180.4 42.5841 1180.97 43.0369 1179.66 42.8162C1178.35 42.592 1175.45 41.7607 1175.12 41.8971C1174.79 42.0221 1180.66 43.4119 1182.49 43.6926C1184.32 43.9606 1184.53 43.3606 1180.82 42.6602ZM1138.98 35.4417C1133.46 35.2378 1142.35 37.1223 1143.54 37.268C1154.04 38.3092 1138.65 35.7134 1138.98 35.4417ZM939.78 89.2659C928.302 96.1952 937.406 92.4009 945.07 88.9937C945.985 88.3582 946.926 87.7102 947.83 87.0854C943.763 90.1473 936.355 94.9421 953.322 85.15C943.768 90.0059 951.598 85.618 951.64 85.5484C952.013 83.7217 938.313 91.815 939.79 89.2603C939.787 89.2622 939.783 89.264 939.78 89.2659ZM1198.18 47.2813C1203.77 48.7121 1218.29 52.9773 1211.73 50.3001C1207.21 49.2132 1202.7 48.208 1198.18 47.2813ZM739.861 174.776C735.046 175.147 730.942 175.714 725.018 176.38C730.377 176.301 726.897 176.755 725.123 177.073C722.425 177.555 729.022 176.821 729.015 176.842C728.958 177.326 724.875 177.949 734.18 176.742C731.874 177.225 729.702 177.669 727.33 178.109C734.497 177.29 736.173 177.339 740.831 177.033C736.785 176.791 740.907 176.573 745.585 175.552C746.202 175.416 746.826 175.267 747.439 175.102C748.759 174.743 747.398 174.632 745.427 174.62C743.506 174.615 741.04 174.687 739.844 174.778C739.85 174.777 739.856 174.777 739.861 174.776ZM927.544 95.7288C926.42 96.543 925.428 97.3547 924.356 98.1701C923.092 98.8885 921.828 99.6059 920.567 100.325C920.337 100.279 920.129 100.213 919.875 100.187C918.18 101.074 918.935 100.898 918.447 101.191C918.446 101.19 918.446 101.189 918.446 101.189C911.447 105.385 908.516 106.979 902.7 109.661C902.925 110.067 903.15 110.473 903.375 110.88C904.61 110.146 905.858 109.406 907.093 108.673C907.639 108.085 908.188 107.495 908.735 106.907C910.254 106.222 911.759 105.544 913.279 104.858C914.4 104.134 915.753 103.276 916.718 102.641C923.146 100.564 909.54 107.096 909.684 107.633C909.774 107.979 923.036 100.609 924.835 99.3486C925.094 99.1664 921.754 99.9035 926.86 97.6636C927.659 97.3153 928.932 98.9953 933.363 94.6376C933.995 94.0181 930.76 94.3048 927.544 95.7288ZM878.966 121.675C887.125 118.867 858.675 132.326 871.187 126.971C868.047 129.314 868.677 128.977 872.385 127.642C872.712 127.526 870.404 128.931 870.617 128.843C873.99 127.415 877.799 125.2 878.083 125.669C878.941 125.177 879.748 124.716 880.605 124.223C876.734 125.713 882.34 122.318 884.352 120.729C885.271 120.008 882.915 121.214 883.685 120.601C883.971 120.376 887.278 118.724 887.325 118.492C887.406 117.983 885.105 118.611 881.504 120.212C881.504 120.212 881.504 120.211 881.503 120.211C880.649 120.702 879.822 121.184 878.966 121.675ZM1043.75 43.9966C1045.36 44.3152 1050.98 42.8717 1040.37 46.367C1040.94 46.3462 1041.53 46.3211 1042.1 46.3034C1043.9 45.755 1045.64 45.2394 1047.48 44.7162C1052.44 41.0272 1063.27 41.0304 1056.37 41.0871C1055.62 41.0926 1051.31 42.372 1055.5 40.8521C1055.49 40.8531 1055.48 40.8542 1055.48 40.8552C1049.51 42.5024 1048.84 42.974 1043.75 43.9966ZM1004.98 58.2905C992.438 65.1232 1023.51 51.7581 1018.16 53.5638C1017.65 53.6484 1004.23 59.3634 1004.98 58.2905ZM1115.77 32.1645C1109.33 32.2151 1108.95 33.1399 1109.6 33.4048C1110.26 33.6757 1114.68 33.276 1115.25 33.3287C1117.12 33.4692 1113.17 33.611 1115.59 33.803C1116.41 33.8037 1127.47 34.2979 1127.98 34.3412C1130.82 34.261 1126.71 33.3934 1127.52 33.3492C1130.18 33.1859 1133.76 33.7612 1134.54 33.4472C1136.25 32.7614 1129.49 33.1778 1128.36 33.1675C1124.95 33.0717 1125.26 32.6459 1122.71 32.4972C1120.15 32.3597 1118.5 32.5023 1116.23 32.4814C1115.47 32.4757 1116.1 32.1651 1115.77 32.1645ZM1094.73 35.0275C1101.31 33.7457 1085.07 34.6572 1083.17 35.2082C1077.61 36.4304 1091.62 35.522 1094.73 35.0275ZM898.672 113.237C903.78 109.894 891.185 116.416 887.708 118.507C888.462 118.321 896.917 114.391 898.672 113.237ZM943.048 87.5057C938.19 90.2889 945.209 87.6714 949.33 85.4692C951.429 83.5847 949.215 84.9066 946.506 86.3219C943.802 87.7373 946.846 85.3407 943.048 87.5057ZM1184.54 41.0131C1183.39 40.6147 1164.13 37.3667 1175.07 39.773C1175.92 39.8963 1189.25 42.7879 1190.26 42.9959C1192.33 43.2916 1187.57 41.7316 1184.54 41.0131ZM966.422 74.1674C964.03 76.0319 961.437 77.3515 964.177 76.7318C964.181 76.73 964.184 76.7282 964.188 76.7264C957.606 80.3237 956.664 79.2441 955.239 80.0155C950.271 82.7364 955.489 81.14 952.503 83.0826C959.665 78.9788 957.889 80.6746 963.485 77.8515C964.735 77.2178 969.59 74.3206 970.218 73.7317C970.842 73.138 967.924 73.7411 966.422 74.1674ZM1211.21 48.0049C1204.95 45.8728 1198.9 45.1766 1207.62 47.8489C1211.86 49.1852 1215.02 49.3242 1211.21 48.0049ZM587.848 160.751C588.723 161.293 589.629 161.842 590.581 162.4C588.253 161.736 585.935 161.057 583.618 160.361C585.46 160.883 587.3 161.394 589.161 161.9C584.862 160.441 583.044 159.36 587.837 160.747C587.841 160.748 587.845 160.75 587.848 160.751ZM436.088 104.282C434.191 103.475 430.093 103.115 430.579 103.312C434.17 104.748 438.717 105.399 436.088 104.282ZM889.698 115.573C883.012 119.098 888.159 117.684 892.265 115.53C889.667 116.687 893.489 113.567 889.698 115.573ZM489.993 123.044C490.588 123.389 491.188 123.736 491.858 124.112C489.682 123.101 489.329 122.861 489.993 123.044ZM1181.75 39.2828C1180.63 38.9124 1172.21 37.1083 1171.05 37.0355C1168.64 36.8305 1175.09 38.7116 1178.98 39.3507C1179.41 39.4155 1182.86 39.6229 1181.73 39.2788C1181.73 39.2801 1181.74 39.2814 1181.75 39.2828ZM578.309 157.107C578.317 157.122 578.307 157.131 578.281 157.133C578.293 157.125 578.294 157.114 578.309 157.107ZM266.889 96.3639C266.939 96.3731 266.967 96.3866 266.965 96.4053C266.944 96.3915 266.905 96.3805 266.889 96.3639ZM1121.62 30.8422C1118.78 29.6183 1112.08 30.302 1117.36 30.8412C1117.66 30.8658 1120.92 30.823 1121.62 30.8422Z" fill="#FFFAEF"/>
</g>
<defs>
<clipPath id="clip0_76_1330">
<rect width="1464" height="229" fill="white"/>
</clipPath>
</defs>
</svg>
